<?xml version="1.0" encoding="UTF-8" standalone="no"?>
<!-- Created with Inkscape (http://www.inkscape.org/) -->
<svg
   xmlns:dc="http://purl.org/dc/elements/1.1/"
   xmlns:cc="http://creativecommons.org/ns#"
   xmlns:rdf="http://www.w3.org/1999/02/22-rdf-syntax-ns#"
   xmlns:svg="http://www.w3.org/2000/svg"
   xmlns="http://www.w3.org/2000/svg"
   xmlns:sodipodi="http://sodipodi.sourceforge.net/DTD/sodipodi-0.dtd"
   xmlns:inkscape="http://www.inkscape.org/namespaces/inkscape"
   id="svg2440"  
   width="461"
   height="45"
   version="1.0"
   >
  <metadata
     id="metadata2445">
    <rdf:RDF>
      <cc:Work
         rdf:about="">
        <dc:format>image/svg+xml</dc:format>
        <dc:type
           rdf:resource="http://purl.org/dc/dcmitype/StillImage" />
      </cc:Work>
    </rdf:RDF>
  </metadata>
  <defs
     id="defs2443">
    <inkscape:perspective
       sodipodi:type="inkscape:persp3d"
       inkscape:vp_x="0 : 526.18109 : 1"
       inkscape:vp_y="0 : 1000 : 0"
       inkscape:vp_z="744.09448 : 526.18109 : 1"
       inkscape:persp3d-origin="372.04724 : 350.78739 : 1"
       id="perspective2447" />
  </defs>
  <sodipodi:namedview
     inkscape:window-height="667"
     inkscape:window-width="640"
     inkscape:pageshadow="2"
     inkscape:pageopacity="0.0"
     guidetolerance="10.0"
     gridtolerance="10.0"
     objecttolerance="10.0"
     borderopacity="1.0"
     bordercolor="#666666"
     pagecolor="#ffffff"
     id="base"
     showgrid="false"
     inkscape:zoom="1.1800434"
     inkscape:cx="230.5"
     inkscape:cy="22.5"
     inkscape:window-x="343"
     inkscape:window-y="83"
     inkscape:current-layer="svg2440" />
  <path
     d="M 182.69682,28.745815 L 180.97821,28.762867 L 181.55381,27.262867 L 182.12942,25.762867 L 183.52243,25.762867 L 184.91544,25.762867 L 184.91544,24.262867 C 184.91544,23.437867 184.64329,22.762867 184.31067,22.762867 C 183.97804,22.762867 181.46607,23.887867 178.72851,25.262867 C 175.99094,26.637867 173.11309,27.762867 172.33328,27.762867 L 170.91544,27.762867 L 170.91544,25.801411 L 170.91544,23.839955 L 175.01638,22.735686 C 177.2719,22.128338 178.90661,21.420706 178.64908,21.163169 C 178.39154,20.905633 176.20862,21.127891 173.79813,21.657077 C 171.38765,22.186263 163.687,22.936976 156.68558,23.325328 L 143.95572,24.031423 L 143.31204,22.354017 L 142.66836,20.676611 L 143.27848,20.066493 C 143.61405,19.730927 145.35714,19.349561 147.15202,19.219012 C 148.9469,19.088463 151.20511,18.658445 152.17027,18.263416 L 153.9251,17.545183 L 157.67027,18.219231 C 159.73011,18.589958 164.00294,19.069985 167.16544,19.285959 L 172.91544,19.678639 L 172.91544,18.189368 L 172.91544,16.700097 L 174.24,16.191817 L 175.56456,15.683536 L 180.3229,17.723201 C 182.93999,18.845017 185.49394,19.762867 185.99835,19.762867 C 186.50275,19.762867 186.91544,19.327239 186.91544,18.794804 L 186.91544,17.826742 L 184.16544,16.334842 L 181.41544,14.842942 L 183.5118,14.802905 L 185.60816,14.762867 L 188.90634,16.408213 L 192.20451,18.053559 L 198.07597,17.877381 L 203.94743,17.701202 L 206.43144,16.756785 L 208.91544,15.812369 L 208.91544,14.787618 L 208.91544,13.762867 L 212.4651,13.762867 L 216.01476,13.762867 L 219.01925,15.316551 L 222.02375,16.870235 L 223.86179,16.566551 L 225.69983,16.262867 L 227.66425,18.038095 L 229.62868,19.813324 L 230.88468,18.299928 L 232.14069,16.786533 L 230.52806,16.167711 C 229.64112,15.827359 228.91544,15.147034 228.91544,14.655878 L 228.91544,13.762867 L 231.41544,13.762867 L 233.91544,13.762867 L 233.91544,14.762867 L 233.91544,15.762867 L 236.02929,15.762867 L 238.14313,15.762867 L 242.06991,13.555897 L 245.99668,11.348926 L 248.70606,13.110448 C 250.19622,14.079285 252.98951,15.575076 254.91336,16.434428 L 258.41129,17.996886 L 264.61582,17.498845 L 270.82036,17.000805 L 272.43933,15.381836 C 273.32976,14.491403 274.70115,13.762867 275.48687,13.762867 L 276.91544,13.762867 L 276.91544,14.602352 C 276.91544,15.064069 275.79044,15.954421 274.41544,16.580913 L 271.91544,17.719989 L 271.91544,18.741428 C 271.91544,19.30322 272.27544,19.762867 272.71544,19.762867 C 273.15544,19.762867 273.94294,19.370404 274.46544,18.890727 C 274.98794,18.411049 277.28066,17.738293 279.56036,17.395711 L 283.70529,16.772836 L 284.25416,18.203186 L 284.80304,19.633536 L 289.60924,18.950691 C 292.25265,18.575126 298.01544,18.289635 302.41544,18.316267 C 306.81544,18.342898 311.31544,18.630577 312.41544,18.955554 L 314.41544,19.546419 L 343.41544,19.677824 C 359.36544,19.750096 373.99044,19.883677 375.91544,19.974669 C 377.84044,20.065662 381.66544,20.082496 384.41544,20.012079 C 387.16544,19.941662 391.66544,19.804126 394.41544,19.706444 C 397.16544,19.608762 400.76544,19.623771 402.41544,19.739797 C 404.06544,19.855823 408.17079,19.846601 411.53844,19.719303 L 417.66144,19.487852 L 418.76777,20.171604 L 419.87411,20.855356 L 421.99595,19.719777 L 424.1178,18.584199 L 434.51662,19.292984 L 444.91544,20.001769 L 444.91544,22.473132 L 444.91544,24.944494 L 401.66544,24.259678 C 377.87794,23.883029 347.93534,23.437895 335.12633,23.270492 L 311.83721,22.966123 L 309.02729,24.026749 L 306.21737,25.087376 L 299.81641,23.874742 C 296.29587,23.207793 291.95294,22.410546 290.16544,22.103082 L 286.91544,21.544055 L 286.91544,23.486794 C 286.91544,24.555301 286.63433,25.710639 286.29076,26.054213 L 285.66608,26.678892 L 281.04872,24.22088 C 278.50917,22.868973 275.86527,21.762867 275.1734,21.762867 L 273.91544,21.762867 L 273.91544,22.737187 L 273.91544,23.711507 L 276.94814,25.279775 L 279.98083,26.848043 L 279.38912,27.805455 L 278.79741,28.762867 L 276.97887,28.762867 L 275.16033,28.762867 L 273.86072,27.19693 C 273.14593,26.335665 271.31318,24.985665 269.78793,24.19693 L 267.01476,22.762867 L 262.01523,22.762867 L 257.0157,22.762867 L 252.32144,25.930988 L 247.62718,29.099108 L 243.52131,27.858796 C 241.26308,27.176625 238.26484,26.38765 236.85856,26.10552 L 234.30168,25.592556 L 232.98611,27.177711 L 231.67055,28.762867 L 229.75781,28.762867 L 227.84507,28.762867 L 225.31825,27.107226 L 222.79142,25.451585 L 219.3195,27.107226 L 215.84759,28.762867 L 212.88151,28.762867 L 209.91544,28.762867 L 207.91544,26.762867 L 205.91544,24.762867 L 203.97446,24.762867 L 202.03347,24.762867 L 201.41544,23.762867 L 200.79741,22.762867 L 197.60642,22.779919 L 194.41544,22.796972 L 189.41544,25.762867 L 184.41544,28.728762 L 182.69682,28.745815 z M 216.16544,24.606711 L 217.91544,23.692499 L 217.91544,21.809471 C 217.91544,20.773805 218.18858,19.214638 218.52243,18.344654 L 219.12942,16.762867 L 215.64487,16.762867 L 212.16033,16.762867 L 210.91544,18.262867 L 209.67055,19.762867 L 207.293,19.762867 L 204.91544,19.762867 L 204.91544,20.794252 L 204.91544,21.825637 L 206.66544,22.368518 C 207.62794,22.667103 209.76544,23.498543 211.41544,24.216161 L 214.41544,25.520922 L 216.16544,24.606711 z M 231.214,25.038894 L 232.01256,24.584812 L 230.84155,23.173839 C 230.1975,22.397805 229.27565,21.762867 228.793,21.762867 L 227.91544,21.762867 L 227.91544,23.179534 L 227.91544,24.5962 L 229.16544,25.044588 C 229.85294,25.291202 230.77479,25.288639 231.214,25.038894 z M 244.9132,23.762867 L 248.79741,23.762867 L 249.41544,22.762867 L 250.03347,21.762867 L 251.97446,21.762867 L 253.91544,21.762867 L 253.91544,20.991981 C 253.91544,20.567994 251.98532,19.166725 249.62629,17.87805 L 245.33715,15.535005 L 243.42267,15.9037 L 241.50819,16.272395 L 241.26859,20.017631 L 241.029,23.762867 L 244.9132,23.762867 z M 223.35642,21.762867 C 223.59896,21.762867 224.07552,21.312867 224.41544,20.762867 L 225.03347,19.762867 L 223.97446,19.762867 L 222.91544,19.762867 L 222.91544,20.762867 C 222.91544,21.312867 223.11388,21.762867 223.35642,21.762867 z M 235.47446,21.762867 C 235.717,21.762867 235.91544,21.312867 235.91544,20.762867 L 235.91544,19.762867 L 234.85642,19.762867 L 233.79741,19.762867 L 234.41544,20.762867 C 234.75536,21.312867 235.23192,21.762867 235.47446,21.762867 z M 42.915441,25.201087 L 14.415441,25.672848 L 13.165441,25.134524 L 11.915441,24.5962 L 11.915441,22.300854 L 11.915441,20.005508 L 14.994834,18.729982 L 18.074226,17.454455 L 39.244834,18.639486 C 50.888668,19.291253 61.990441,19.76319 63.915441,19.688234 C 65.840441,19.613279 70.340441,19.547627 73.915441,19.542341 C 77.490441,19.537054 81.765441,19.530951 83.415441,19.528778 C 85.065441,19.526604 94.290445,19.503282 103.91544,19.476949 L 121.41544,19.429071 L 125.91544,20.380334 L 130.41544,21.331597 L 128.41544,22.439984 L 126.41544,23.548372 L 110.91544,23.725781 C 102.39044,23.823356 92.940441,23.816088 89.915441,23.70963 C 86.890441,23.603173 81.490441,23.789054 77.915441,24.122699 C 74.340441,24.456344 58.590441,24.941619 42.915441,25.201087 z M 136.41544,22.762867 L 132.74877,22.762867 L 133.16544,21.512867 L 133.58211,20.262867 L 136.41544,20.262867 L 139.24877,20.262867 L 139.66544,21.512867 L 140.08211,22.762867 L 136.41544,22.762867 z"
     id="path2457" />
</svg>
